<svg width="40" height="40" viewBox="0 0 40 40" fill="none" xmlns="http://www.w3.org/2000/svg">
<path d="M23.2929 9.29289C23.6834 8.90237 24.3166 8.90237 24.7071 9.29289C25.0976 9.68342 25.0976 10.3166 24.7071 10.7071L16.378 19.0362L24.7433 28.331C25.1128 28.7415 25.0795 29.3738 24.669 29.7433C24.2585 30.1128 23.6262 30.0795 23.2567 29.669L14.3836 19.81L15.1269 19.141L14.3836 19.81C13.9567 19.3356 13.9758 18.61 14.4271 18.1587L23.2929 9.29289ZM1 20C1 30.4934 9.50659 39 20 39C30.4934 39 39 30.4934 39 20C39 9.50659 30.4934 1 20 1C9.50659 1 1 9.50659 1 20Z" stroke="#C4C4C4" stroke-width="2" stroke-linecap="round"/>
</svg>
