<svg width="42" height="42" viewBox="0 0 42 42" fill="none" xmlns="http://www.w3.org/2000/svg">
<circle cx="21" cy="21" r="20.5" fill="url(#paint0_linear_14_266)" stroke="#4C381F"/>
<path d="M19.5489 9.92705C19.8483 9.00574 21.1517 9.00574 21.4511 9.92705L23.5309 16.3283C23.6648 16.7403 24.0488 17.0193 24.482 17.0193L31.2126 17.0193C32.1814 17.0193 32.5841 18.2589 31.8004 18.8283L26.3552 22.7844C26.0047 23.0391 25.8581 23.4905 25.9919 23.9025L28.0718 30.3037C28.3712 31.225 27.3167 31.9911 26.533 31.4217L21.0878 27.4656C20.7373 27.2109 20.2627 27.2109 19.9122 27.4656L14.467 31.4217C13.6833 31.9911 12.6288 31.225 12.9282 30.3037L15.0081 23.9025C15.1419 23.4905 14.9953 23.0391 14.6448 22.7844L9.19958 18.8283C8.41586 18.2589 8.81864 17.0193 9.78736 17.0193L16.518 17.0193C16.9512 17.0193 17.3352 16.7403 17.4691 16.3283L19.5489 9.92705Z" fill="#4C381F"/>
<defs>
<linearGradient id="paint0_linear_14_266" x1="31" y1="3.5" x2="7.5" y2="36.5" gradientUnits="userSpaceOnUse">
<stop stop-color="#F0E0C2"/>
<stop offset="1" stop-color="#BDAE98"/>
</linearGradient>
</defs>
</svg>
