<svg width="40" height="40" viewBox="0 0 40 40" fill="none" xmlns="http://www.w3.org/2000/svg">
<path d="M16.7071 9.29289C16.3166 8.90237 15.6834 8.90237 15.2929 9.29289C14.9024 9.68342 14.9024 10.3166 15.2929 10.7071L23.622 19.0362L15.2567 28.331C14.8872 28.7415 14.9205 29.3738 15.331 29.7433C15.7415 30.1128 16.3738 30.0795 16.7433 29.669L25.6164 19.81L24.8731 19.141L25.6164 19.81C26.0433 19.3356 26.0242 18.61 25.5729 18.1587L16.7071 9.29289ZM39 20C39 30.4934 30.4934 39 20 39C9.50659 39 1 30.4934 1 20C1 9.50659 9.50659 1 20 1C30.4934 1 39 9.50659 39 20Z" stroke="#C4C4C4" stroke-width="2" stroke-linecap="round"/>
</svg>
